<svg width="17" height="19" viewBox="0 0 17 19" fill="none" xmlns="http://www.w3.org/2000/svg">
<path d="M10.9406 0.460358H5.72029V2.18067H10.9406V0.460358ZM7.46039 11.6424H9.20049V6.48145H7.46039V11.6424ZM14.4469 5.95675L15.6823 4.73533C15.3082 4.29665 14.8993 3.88378 14.4556 3.52251L13.2201 4.74393C11.8715 3.67734 10.1749 3.04082 8.33044 3.04082C4.0063 3.04082 0.5 6.50725 0.5 10.7822C0.5 15.0572 3.9976 18.5236 8.33044 18.5236C12.6633 18.5236 16.1609 15.0572 16.1609 10.7822C16.1609 8.9587 15.517 7.28139 14.4469 5.95675ZM8.33044 16.8033C4.96335 16.8033 2.2401 14.111 2.2401 10.7822C2.2401 7.45342 4.96335 4.76114 8.33044 4.76114C11.6975 4.76114 14.4208 7.45342 14.4208 10.7822C14.4208 14.111 11.6975 16.8033 8.33044 16.8033Z" fill="black"/>
</svg>
