<svg width="23" height="23" viewBox="0 0 23 23" fill="none" xmlns="http://www.w3.org/2000/svg">
<g clip-path="url(#clip0)">
<path d="M15.1667 12.4675V3.73367C15.1667 1.70864 13.525 0.0670166 11.5 0.0670166C9.47497 0.0670166 7.83335 1.70864 7.83335 3.73367V12.4675C6.70813 13.4746 6 14.9381 6 16.567C6 19.6046 8.46245 22.067 11.5 22.067C14.5375 22.067 17 19.6046 17 16.567C17 14.9381 16.2919 13.4746 15.1667 12.4675ZM11.5 20.2337C9.47497 20.2337 7.83335 18.592 7.83335 16.567C7.83335 15.5084 8.28198 14.5263 9.05602 13.8336L9.6667 13.287V3.73367C9.6667 2.72115 10.4875 1.90032 11.5 1.90032C12.5126 1.90032 13.3334 2.72111 13.3334 3.73367V13.287L13.9441 13.8336C14.7181 14.5263 15.1667 15.5084 15.1667 16.567C15.1667 18.592 13.525 20.2337 11.5 20.2337Z" fill="white"/>
<path d="M12.4167 7.40036H10.5834V18.4004H12.4167V7.40036Z" fill="white"/>
<path d="M11.5 19.317C13.0188 19.317 14.25 18.0858 14.25 16.567C14.25 15.0482 13.0188 13.817 11.5 13.817C9.98122 13.817 8.75 15.0482 8.75 16.567C8.75 18.0858 9.98122 19.317 11.5 19.317Z" fill="white"/>
</g>
<defs>
<clipPath id="clip0">
<rect width="22" height="22" fill="white" transform="translate(0.5 0.0670166)"/>
</clipPath>
</defs>
</svg>
